<svg xmlns="http://www.w3.org/2000/svg" viewBox="0 0 400 300">
  <rect width="400" height="300" fill="#f6f1e3"/>
  <rect x="16" y="16" width="368" height="268" rx="10" fill="none" stroke="#e0d6bd" stroke-width="2"/>
  <line x1="34" y1="16" x2="34" y2="284" stroke="#cf4a33" stroke-width="2" opacity="0.5"/>
  <rect x="24" y="24" width="352" height="252" rx="8" fill="none" stroke="#b9ae94" stroke-width="1.5" stroke-dasharray="8 7"/>

  <g stroke="#cf4a33" stroke-width="3" stroke-linecap="round" fill="none">
    <path d="M160 150 q-3-46-30-58 q8 30 0 46 q28-6 30 12 z"/>
    <path d="M160 150 q3-46 30-58 q-8 30 0 46 q-28-6-30 12 z"/>
    <circle cx="160" cy="104" r="16"/>
  </g>
  <path d="M160 120 v-14" stroke="#cf4a33" stroke-width="3" stroke-linecap="round"/>
  <g stroke="#3151c2" stroke-width="3" stroke-linecap="round" fill="none">
    <path d="M96 154 l-34 34 M112 96 l-40 40 M96 190 l-26 26 M296 92 l26-26 M296 140 l30-16"/>
  </g>
  <g fill="#3151c2" stroke="none">
    <rect x="92" y="152" width="6" height="10" transform="rotate(20 95 157)"/>
    <rect x="294" y="90" width="6" height="10" transform="rotate(-20 297 95)"/>
  </g>
  <g fill="#cf4a33" stroke="none">
    <circle cx="322" cy="80" r="4"/>
    <circle cx="86" cy="120" r="3"/>
    <circle cx="312" cy="132" r="3"/>
  </g>
  <g stroke="#211f1a" stroke-width="3" stroke-linecap="round" stroke-linejoin="round" fill="none">
    <path d="M166 178 h-24 M186 178 h34 M188 154 h26"/>
  </g>

  <text x="200" y="266" text-anchor="middle" font-size="26" fill="#211f1a" transform="rotate(-2 200 266)" font-family="Comic Sans MS, Caveat, cursive" font-weight="bold">PARTY</text>
  <text x="200" y="286" text-anchor="middle" font-size="15" fill="#5b574b" font-family="Comic Sans MS, Caveat, cursive">confetti &amp; chaos</text>
</svg>