<svg xmlns="http://www.w3.org/2000/svg" viewBox="0 0 400 300">
  <rect width="400" height="300" fill="#f6f1e3"/>
  <rect x="16" y="16" width="368" height="268" rx="10" fill="none" stroke="#e0d6bd" stroke-width="2"/>
  <line x1="34" y1="16" x2="34" y2="284" stroke="#cf4a33" stroke-width="2" opacity="0.5"/>
  <rect x="24" y="24" width="352" height="252" rx="8" fill="none" stroke="#b9ae94" stroke-width="1.5" stroke-dasharray="8 7"/>

  <g stroke="#211f1a" stroke-width="3" stroke-linecap="round" stroke-linejoin="round" fill="none">
    <path d="M140 66 h120 v-26 h28 v150 h-28 v-22 h-120 v22 h-28 v-150 h28 z"/>
    <path d="M140 40 h120"/>
  </g>
  <g fill="#fdfaf0" stroke="#3151c2" stroke-width="2">
    <rect x="150" y="70" width="30" height="34" rx="3"/>
    <rect x="190" y="70" width="30" height="34" rx="3"/>
    <rect x="230" y="70" width="20" height="34" rx="3"/>
  </g>
  <g fill="#3151c2" stroke="none">
    <circle cx="96" cy="84" r="12"/>
    <circle cx="118" cy="98" r="8"/>
    <circle cx="104" cy="106" r="6"/>
  </g>
  <g stroke="#5b574b" stroke-width="2.5" stroke-linecap="round" fill="none">
    <path d="M196 124 h34 M196 138 h34 M196 152 h26"/>
    <g stroke="#211f1a" stroke-width="3">
      <circle cx="150" cy="120" r="10"/><path d="M150 130 v-18 M142 118 h16"/>
      <circle cx="204" cy="116" r="10"/><path d="M204 126 v-18 M196 114 h16"/>
      <circle cx="258" cy="114" r="10"/><path d="M258 124 v-18 M250 112 h16"/>
    </g>
  </g>
  <g fill="#211f1a" stroke="none">
    <path d="M118 216 q14 22 28 0 q10 18 24 2 q12 20 26 4 q14 18 28 0" stroke="#211f1a" stroke-width="3" fill="none" stroke-linecap="round"/>
  </g>

  <text x="200" y="272" text-anchor="middle" font-size="25" fill="#211f1a" transform="rotate(-2 200 272)" font-family="Comic Sans MS, Caveat, cursive" font-weight="bold">TCS VISIT</text>
</svg>